PathFileType	4	(X/Y/Z)	C:/Users/beibeiliu/ov580/test_trc/User2\sequence.11_training_dense_left.trc
DataRate	CameraRate	NumFrames	NumMarkers	Units	OrigDataRate	OrigDataStartFrame	OrigNumFrames
120	120	12	19	mm	120	1	366
Frame#	Time	ThumbCMC			ThumbMCP			ThumbIP			ThumbTip			IndexMCP			IndexPIP			IndexTip			MiddleMCP			MiddlePIP			MiddleTip			RingMCP			RingPIP			RingTip			PinkyMCP			PinkyPIP			PinkyTip			BackHand1			BackHand2			BackHand3	
		X0	Y0	Z0	X1	Y1	Z1	X2	Y2	Z2	X3	Y3	Z3	X4	Y4	Z4	X5	Y5	Z5	X6	Y6	Z6	X7	Y7	Z7	X8	Y8	Z8	X9	Y9	Z9	X10	Y10	Z10	X11	Y11	Z11	X12	Y12	Z12	X13	Y13	Z13	X14	Y14	Z14	X15	Y15	Z15	X16	Y16	Z16	X17	Y17	Z17	X18	Y18	Z18	
0	0	-158.713	-15.8657	139.892	-140.302	-27.0237	118.971	-118.192	-35.0058	92.5844	-103.825	-44.4963	72.087	-186.438	-4.00029	60.2049	-181.046	-4.82238	33.3962	-178.976	-4.03456	0.691175	-213.933	-2.21522	55.3283	-219.213	-2.89094	23.4983	-225.695	-6.77685	-7.75709	-237.334	-9.22395	62.8	-244.871	-10.3113	40.0417	-251.732	-15.001	11.4285	-259.17	-22.0329	85.1059	-268.575	-23.5442	64.837	-276.753	-18.7259	40.3064	-230.278	-1.64729	117.192	-226.178	4.58809	154.358	-194.527	6.56976	128.759	
1	0.00833333	-161.187	-17.2134	137.799	-140.203	-26.6867	117.856	-123.878	-36.5626	92.0404	-105.406	-46.1252	72.4116	-187.617	-3.91416	58.8307	-183.241	-3.70226	29.243	-181.388	-4.82659	-0.39807	-214.277	-2.38278	52.7222	-218.707	-3.29825	25.8025	-226.522	-7.39791	-7.85053	-242.263	-9.7625	65.5837	-244.881	-11.4332	39.4747	-253.199	-15.0973	6.52083	-256.469	-23.0899	88.1711	-271.767	-22.5376	60.5287	-279.871	-18.0917	42.9934	-232.733	-3.25164	121.304	-226.368	5.20998	151.488	-194.608	5.13156	126.94	
2	0.0166667	-161.448	-18.4184	140.169	-142.25	-28.1109	121.048	-120.067	-37.7909	90.1516	-108.264	-47.4887	76.6718	-182.508	-4.42531	55.9789	-183.399	-4.91876	31.8011	-177.437	-5.40237	4.22911	-216.318	-2.7305	56.6499	-218.906	-4.10299	24.9941	-222.857	-7.20578	-6.07361	-236.948	-10.0716	66.898	-246.111	-12.5334	35.5464	-253.783	-15.9444	8.16823	-258.588	-22.2598	87.7487	-271.42	-23.8228	63.0582	-278.924	-20.5642	42.0862	-233.68	-2.93264	121.205	-225.815	3.21846	151.602	-195.933	4.3487	130.362	
3	0.025	-158.186	-17.8914	135.934	-142.306	-28.7346	118.601	-121.397	-38.4651	92.7908	-106.954	-48.2653	78.8752	-184.881	-4.96322	57.0083	-178.638	-4.32275	29.1987	-182.385	-6.58803	5.55295	-213.247	-3.05535	58.3077	-218.619	-4.1425	23.4166	-224.664	-7.6394	-6.09448	-236.717	-9.92669	64.6928	-246.253	-12.5149	37.5575	-250.072	-15.2374	13.0788	-253.434	-23.2209	88.1082	-266.471	-22.5274	62.6698	-278.332	-18.2354	43.5879	-231.865	-4.12013	118.591	-229.403	3.1048	151.53	-194.494	4.60058	127.714	
4	0.0333333	-161.756	-18.3723	140.223	-140.008	-28.0017	117.421	-117.925	-37.7166	94.8642	-103.471	-47.6582	77.6544	-181.683	-4.19954	60.6347	-179.804	-4.34718	34.3648	-177.072	-5.30422	6.43104	-210.908	-1.0053	52.8819	-215.235	-4.18634	21.2099	-221.067	-6.40072	-4.56133	-240.659	-11.0259	66.5901	-244.861	-11.6396	36.1936	-252.465	-15.898	9.26413	-258.805	-23.0299	87.3874	-264.374	-22.9977	63.5647	-277.929	-17.8831	43.2956	-232.182	-2.33233	119.587	-223.597	4.26853	149.608	-194.747	3.8434	128.132	
5	0.0416667	-160.938	-17.7625	136.03	-140.52	-27.1623	118.281	-119.576	-36.8728	91.0771	-102.472	-46.9952	76.3975	-180.415	-4.06691	61.6922	-181.834	-4.47959	29.9686	-176.999	-5.51194	6.16385	-214.392	-2.1295	53.9878	-215.303	-3.15306	23.8931	-223.642	-6.86355	-5.60705	-240.789	-10.5618	66.4921	-247.448	-11.8185	36.9441	-252.937	-15.2209	12.4052	-255.999	-21.6054	87.1627	-263.761	-22.8642	65.1628	-277.679	-20.0579	42.9453	-228.014	-2.17581	122.388	-225.362	3.34292	151.884	-191.029	4.43681	128.966	
6	0.05	-158.086	-17.2078	136.116	-137.392	-27.2029	117.55	-120.36	-38.732	95.3108	-104.925	-47.4052	76.966	-183.84	-3.78325	56.3302	-177.875	-4.63073	33.8783	-178.694	-5.58722	5.41067	-214.88	-2.13091	53.2958	-214.455	-3.19119	25.8326	-221.264	-5.72798	-8.00743	-235.383	-10.2242	67.4635	-245.313	-11.8665	39.2909	-249.91	-13.6964	7.69313	-257.982	-22.4977	87.226	-268.119	-22.5035	60.5499	-278.019	-19.2993	41.2306	-226.422	-4.46783	122.249	-226.288	3.06508	153.436	-193.891	5.64766	130.389	
7	0.0583333	-157.879	-16.9411	140.928	-137.904	-27.9331	120.82	-115.863	-37.1488	92.285	-101.076	-47.2635	77.8099	-182.323	-3.19859	57.7871	-176.683	-4.31076	29.1486	-179.119	-5.04066	5.26165	-212.605	-2.13421	53.4727	-215.221	-3.53146	24.9392	-217.685	-6.73905	-11.0088	-235.02	-9.92039	66.0555	-247.177	-12.5316	39.0951	-250.979	-15.3816	11.5003	-257.962	-21.4621	84.7697	-265.346	-23.3148	63.4726	-277.97	-19.347	38.3201	-231.492	-4.56961	122.889	-226.168	2.76133	151.395	-190.861	6.53672	128.958	
8	0.0666667	-158.04	-18.6347	138.09	-138.521	-29.0308	117.954	-119.906	-38.8314	93.7049	-103.045	-48.2677	73.4204	-181.72	-4.27591	60.0514	-177.421	-4.58511	28.429	-173.1	-6.22254	0.762594	-211.328	-2.59647	56.735	-217.801	-4.27745	21.5508	-219.871	-7.66707	-8.16087	-236.825	-9.9597	64.8862	-245.912	-12.205	39.2568	-247.543	-16.0065	7.93564	-256.31	-23.2112	88.9213	-264.304	-23.8028	64.4396	-277.272	-19.3705	40.9498	-228.61	-5.38824	120.646	-225.935	1.67896	154.283	-191.999	3.45681	130.163	
9	0.075	-160.069	-19.4226	139.895	-134.697	-29.4319	119.211	-115.223	-38.8419	96.3979	-105.418	-50.7403	77.3027	-180.125	-5.54056	58.8483	-179.552	-5.85725	33.1024	-176.5	-6.76668	3.63734	-209.551	-2.93062	54.2405	-212.723	-4.30454	23.3421	-218.094	-8.77345	-6.83554	-233.423	-9.90726	63.1414	-245.9	-12.4051	40.8279	-248.136	-17.513	9.83669	-251.243	-23.9647	88.0253	-265.719	-24.2647	61.9886	-274.323	-20.728	40.6301	-231.085	-5.635	121.454	-226.131	1.91987	149.936	-190.821	3.42538	130.665	
10	0.0833333	-157.555	-19.1982	137.61	-136.722	-30.1843	119.432	-116.621	-40.7889	93.9976	-101.371	-50.7623	75.8388	-181.809	-7.28791	57.3683	-175.964	-7.66144	32.0252	-176.113	-8.46342	1.36699	-210.331	-4.01962	52.5061	-212.764	-6.18853	24.3027	-221.045	-10.0654	-6.53043	-238.492	-12.8482	65.8941	-244.473	-13.7708	40.045	-246.974	-17.4849	8.08269	-250.862	-24.885	87.3711	-264.082	-24.2884	62.1446	-273.243	-21.7259	40.7561	-230.316	-6.36179	121.493	-225.031	0.141354	148.671	-192.61	3.40217	129.458	
11	0.0916667	-160.229	-21.1996	140.816	-133.864	-30.4704	121.651	-114.498	-40.4813	96.024	-104.099	-51.4053	77.9154	-179.285	-7.20432	57.4182	-174.895	-7.77687	30.0826	-175.232	-8.47549	5.76258	-209.183	-4.56138	55.754	-214.287	-5.75781	22.7749	-218.685	-9.40415	-9.93359	-235.696	-12.99	67.5742	-239.977	-14.0184	40.1217	-247.213	-17.2033	12.2267	-250.509	-23.0865	82.434	-260.587	-25.2323	63.3866	-275.013	-20.8887	40.2891	-229.686	-4.78276	119.665	-226.498	1.26628	151.151	-188.977	1.35363	127.907	
